<svg width="389" height="109" viewBox="0 0 389 109" fill="none" xmlns="http://www.w3.org/2000/svg">
<g opacity="0.6">
<g opacity="0.6">
<path opacity="0.6" d="M36.1054 85.2656L24.0703 77.5141L12.0351 69.7627L0 77.5141L12.0351 85.2656L24.0703 93.017L36.1054 100.768L47.9365 108.52V93.017L36.1054 85.2656Z" fill="white"/>
<path opacity="0.6" d="M84.0418 54.2603L72.0067 62.0117L84.0418 69.7631L96.077 77.5146V62.0117L84.0418 54.2603Z" fill="white"/>
<path opacity="0.6" d="M12.0351 38.7573L0 31.0059V46.5087L12.0351 54.2602L24.0703 46.5087L12.0351 38.7573Z" fill="white"/>
<path opacity="0.6" d="M84.0417 23.2543L72.0066 15.5029L59.9715 7.75144L47.9363 0V15.5029L59.9715 23.2543L72.0066 31.0057L84.0417 38.7572L96.0769 31.0057L84.0417 23.2543Z" fill="white"/>
<path opacity="0.6" d="M59.9715 38.7573L47.9363 31.0059V46.5087L59.9715 54.2602L72.0066 46.5087L59.9715 38.7573Z" fill="white"/>
<path opacity="0.6" d="M36.1056 54.2603L24.0704 62.0117L36.1056 69.7631L47.9367 77.5146V62.0117L36.1056 54.2603Z" fill="white"/>
</g>
</g>
<g opacity="0.95">
<g opacity="0.95">
<path opacity="0.95" d="M84.0417 69.7632L72.0066 77.5146L59.9715 85.2661L47.9363 93.0175V108.52L59.9715 100.769L72.0066 93.0175L84.0417 85.2661L96.0769 77.5146L84.0417 69.7632Z" fill="white"/>
<path opacity="0.95" d="M36.1054 7.75193L24.0703 15.5034L12.0351 23.2548L0 31.0062L12.0351 38.7577L24.0703 31.0062L36.1054 23.2548L47.9365 15.5034V0.000488281L36.1054 7.75193Z" fill="white"/>
<path opacity="0.95" d="M36.1054 38.7573L24.0703 46.5087L12.0351 54.2602L0 62.0116V77.5145L12.0351 69.7631L24.0703 62.0116L36.1054 54.2602L47.9365 46.5087V31.0059L36.1054 38.7573Z" fill="white"/>
<path opacity="0.95" d="M84.0417 38.7573L72.0066 46.5087L59.9715 54.2602L47.9363 62.0116V77.5145L59.9715 69.7631L72.0066 62.0116L84.0417 54.2602L96.0769 46.5087V31.0059L84.0417 38.7573Z" fill="white"/>
</g>
</g>
<path d="M140.75 32.6377H146.87V67.3152H176.856V73.2308H140.546L140.75 32.6377Z" fill="white"/>
<path d="M183.383 32.4341H189.706V73.0271H183.383V32.4341Z" fill="white"/>
<path d="M201.741 32.6377H205.005L230.503 61.1956V32.8417H236.623V73.2308H233.359L207.657 44.8768V73.2308H201.537L201.741 32.6377Z" fill="white"/>
<path d="M288.027 78.7385H280.276L276.4 74.0468C274.972 74.2508 273.748 74.2508 272.728 74.4548C271.708 74.4548 271.096 74.6588 270.484 74.6588C266.813 74.6588 263.345 74.0468 260.489 73.0269C257.429 72.007 254.778 70.3751 252.738 68.5392C250.494 66.4994 248.862 64.2555 247.638 61.6037C246.414 58.9519 245.802 56.0961 245.802 53.2403C245.802 50.1806 246.414 47.5288 247.638 44.877C248.862 42.2251 250.494 39.9813 252.738 38.1454C254.982 36.3096 257.429 34.6777 260.489 33.6578C263.549 32.6378 266.813 32.0259 270.484 32.0259C274.156 32.0259 277.624 32.6378 280.684 33.6578C283.744 34.6777 286.395 36.3096 288.435 38.1454C290.679 39.9813 292.311 42.2251 293.535 44.877C294.759 47.5288 295.371 50.1806 295.371 53.2403C295.371 57.728 294.147 61.6037 291.699 64.8675C289.251 68.1313 286.191 70.5791 282.52 72.211L288.027 78.7385ZM278.644 67.5193C281.908 66.0914 284.559 64.0516 286.395 61.6037C288.231 59.1559 289.047 56.3001 289.047 53.2403C289.047 51.2005 288.639 49.1606 287.823 47.1208C287.007 45.2849 285.783 43.653 284.151 42.2251C282.52 40.7972 280.684 39.7773 278.44 38.9614C276.196 38.1454 273.748 37.7375 270.892 37.7375C268.037 37.7375 265.589 38.1454 263.345 38.9614C261.101 39.7773 259.265 40.7972 257.633 42.2251C256.002 43.653 254.778 45.2849 253.962 47.1208C253.146 48.9567 252.738 50.9965 252.738 53.2403C252.738 55.2802 253.146 57.3201 253.962 59.3599C254.778 61.1958 256.002 62.8277 257.633 64.2556C259.265 65.6834 261.101 66.9074 263.345 67.7233C265.589 68.5392 268.037 68.9472 270.688 68.9472C271.096 68.9472 271.3 68.9472 271.504 68.9472C271.708 68.9472 272.116 68.9472 272.32 68.9472L268.241 63.8476H275.992L278.644 67.5193Z" fill="white"/>
<path d="M314.341 38.5534H297.206V32.8418H337.595V38.5534H320.461V73.4349H314.341V38.5534Z" fill="white"/>
<path d="M364.114 74.6588C360.442 74.6588 356.974 74.0468 354.119 73.0269C351.059 72.007 348.407 70.3751 346.367 68.5392C344.123 66.4994 342.491 64.2555 341.268 61.6037C340.044 58.9519 339.432 56.0961 339.432 53.2403C339.432 50.1806 340.044 47.5288 341.268 44.877C342.491 42.2251 344.123 39.9813 346.367 38.1454C348.611 36.3096 351.059 34.6777 354.119 33.6578C357.178 32.6378 360.442 32.0259 364.114 32.0259C367.786 32.0259 371.253 32.6378 374.313 33.6578C377.373 34.6777 380.025 36.3096 382.065 38.1454C384.308 39.9813 385.94 42.2251 387.164 44.877C388.388 47.5288 389 50.1806 389 53.2403C389 56.3001 388.388 59.1559 387.164 61.6037C385.94 64.2555 384.308 66.4994 382.065 68.3353C379.821 70.1711 377.373 71.803 374.313 72.8229C371.253 74.2508 367.786 74.6588 364.114 74.6588ZM364.114 68.9472C366.97 68.9472 369.417 68.5392 371.661 67.7233C373.905 66.9074 375.945 65.8874 377.577 64.4595C379.209 63.0316 380.433 61.3998 381.249 59.5639C382.065 57.728 382.473 55.6882 382.473 53.4443C382.473 51.4045 382.065 49.3646 381.249 47.3248C380.433 45.4889 379.209 43.653 377.577 42.4291C375.945 41.0012 374.109 39.9813 371.865 39.1654C369.621 38.3494 367.174 37.9415 364.318 37.9415C361.462 37.9415 359.014 38.3494 356.77 39.1654C354.527 39.9813 352.691 41.0012 351.059 42.4291C349.427 43.857 348.203 45.4889 347.387 47.3248C346.571 49.1606 346.163 51.2005 346.163 53.4443C346.163 55.6882 346.571 57.728 347.387 59.5639C348.203 61.3998 349.427 63.0316 351.059 64.4595C352.691 65.8874 354.527 66.9074 356.77 67.7233C358.81 68.5392 361.258 68.9472 364.114 68.9472Z" fill="white"/>
</svg>
